<svg width="24" height="24" viewBox="0 0 24 24" fill="none" xmlns="http://www.w3.org/2000/svg">
<path fill-rule="evenodd" clip-rule="evenodd" d="M12 2.89998C6.97418 2.89998 2.89998 6.97418 2.89998 12C2.89998 17.0258 6.97418 21.1 12 21.1C17.0258 21.1 21.1 17.0258 21.1 12C21.1 6.97418 17.0258 2.89998 12 2.89998ZM1.09998 12C1.09998 5.98007 5.98007 1.09998 12 1.09998C18.0199 1.09998 22.9 5.98007 22.9 12C22.9 18.0199 18.0199 22.9 12 22.9C5.98007 22.9 1.09998 18.0199 1.09998 12ZM7.36358 11.3636L11.3636 7.36358C11.7151 7.01211 12.2849 7.01211 12.6364 7.36358L16.6364 11.3636C16.9878 11.7151 16.9878 12.2849 16.6364 12.6364C16.2849 12.9878 15.7151 12.9878 15.3636 12.6364L12.9 10.1728V16C12.9 16.497 12.497 16.9 12 16.9C11.5029 16.9 11.1 16.497 11.1 16V10.1728L8.63637 12.6364C8.2849 12.9878 7.71505 12.9878 7.36358 12.6364C7.01211 12.2849 7.01211 11.7151 7.36358 11.3636Z" fill="#272727"/>
</svg>
