<svg width="24" height="24" viewBox="0 0 24 24" fill="none" xmlns="http://www.w3.org/2000/svg">
<path fill-rule="evenodd" clip-rule="evenodd" d="M10.6647 2.09998L10.7001 2.09998H13.3001L13.3355 2.09998C13.8654 2.09996 14.3166 2.09995 14.687 2.13021C15.0761 2.16201 15.4547 2.23164 15.8167 2.41606C16.3623 2.69409 16.806 3.13773 17.084 3.6834C17.2684 4.04534 17.3381 4.42393 17.3699 4.81309C17.4001 5.18352 17.4001 5.6347 17.4001 6.16457V6.19998V10.1H19.4001L19.4299 10.1C19.6842 10.0999 19.9262 10.0999 20.1302 10.1166C20.3526 10.1348 20.6077 10.1771 20.8627 10.3071C21.2202 10.4892 21.5109 10.7799 21.693 11.1374C21.8229 11.3924 21.8653 11.6475 21.8835 11.8699C21.9001 12.0739 21.9001 12.3159 21.9001 12.5702L21.9001 12.6V20.1H22.0001C22.4972 20.1 22.9001 20.5029 22.9001 21C22.9001 21.497 22.4972 21.9 22.0001 21.9H21.0001H16.5001H7.5001H3.0001H2.0001C1.50304 21.9 1.1001 21.497 1.1001 21C1.1001 20.5029 1.50304 20.1 2.0001 20.1H2.1001V12.6L2.1001 12.5702C2.10007 12.3159 2.10005 12.0739 2.11671 11.8699C2.13488 11.6475 2.17727 11.3924 2.30719 11.1374C2.48935 10.7799 2.78001 10.4892 3.13752 10.3071C3.39249 10.1771 3.6476 10.1348 3.87001 10.1166C4.07397 10.0999 4.31602 10.0999 4.57034 10.1L4.6001 10.1H6.6001V6.19998L6.6001 6.16457C6.60008 5.6347 6.60007 5.18352 6.63034 4.81309C6.66213 4.42393 6.73176 4.04534 6.91618 3.6834C7.19421 3.13773 7.63786 2.69409 8.18353 2.41606C8.54546 2.23164 8.92405 2.16201 9.31321 2.13021C9.68364 2.09995 10.1348 2.09996 10.6647 2.09998ZM6.6001 11.9H4.6001C4.30522 11.9 4.13819 11.9007 4.01659 11.9106C3.9782 11.9137 3.95405 11.9172 3.94058 11.9196C3.93264 11.9255 3.92562 11.9325 3.91974 11.9405C3.91737 11.9539 3.91387 11.9781 3.91073 12.0165C3.9008 12.1381 3.9001 12.3051 3.9001 12.6V20.1H6.6001V11.9ZM8.4001 20.1V11V6.19998C8.4001 5.62507 8.4008 5.24802 8.42436 4.95967C8.44706 4.68182 8.48642 4.56648 8.51999 4.50059C8.62545 4.29361 8.79373 4.12533 9.00071 4.01987C9.0666 3.9863 9.18194 3.94694 9.45979 3.92424C9.74814 3.90068 10.1252 3.89998 10.7001 3.89998H13.3001C13.875 3.89998 14.2521 3.90068 14.5404 3.92424C14.8183 3.94694 14.9336 3.9863 14.9995 4.01987C15.2065 4.12533 15.3747 4.29361 15.4802 4.50059C15.5138 4.56648 15.5531 4.68182 15.5758 4.95967C15.5994 5.24802 15.6001 5.62507 15.6001 6.19998V11V20.1H8.4001ZM17.4001 20.1H20.1001V12.6C20.1001 12.3051 20.0994 12.1381 20.0895 12.0165C20.0863 11.9781 20.0828 11.9539 20.0805 11.9405C20.0746 11.9325 20.0676 11.9255 20.0596 11.9196C20.0461 11.9172 20.022 11.9137 19.9836 11.9106C19.862 11.9007 19.695 11.9 19.4001 11.9H17.4001V20.1ZM10.1001 6.99998C10.1001 6.50292 10.503 6.09998 11.0001 6.09998H13.0001C13.4972 6.09998 13.9001 6.50292 13.9001 6.99998C13.9001 7.49703 13.4972 7.89998 13.0001 7.89998H11.0001C10.503 7.89998 10.1001 7.49703 10.1001 6.99998ZM10.1001 11C10.1001 10.5029 10.503 10.1 11.0001 10.1H13.0001C13.4972 10.1 13.9001 10.5029 13.9001 11C13.9001 11.497 13.4972 11.9 13.0001 11.9H11.0001C10.503 11.9 10.1001 11.497 10.1001 11ZM10.1001 15C10.1001 14.5029 10.503 14.1 11.0001 14.1H13.0001C13.4972 14.1 13.9001 14.5029 13.9001 15C13.9001 15.497 13.4972 15.9 13.0001 15.9H11.0001C10.503 15.9 10.1001 15.497 10.1001 15Z" fill="#272727"/>
</svg>
