<svg width="24" height="24" viewBox="0 0 24 24" fill="none" xmlns="http://www.w3.org/2000/svg">
<path fill-rule="evenodd" clip-rule="evenodd" d="M3.1001 1.99998C3.1001 1.50292 3.50304 1.09998 4.0001 1.09998H6.0001H18.0001H20.0001C20.4972 1.09998 20.9001 1.50292 20.9001 1.99998C20.9001 2.49703 20.4972 2.89998 20.0001 2.89998H18.9001V4.75178C18.9001 4.78841 18.9001 4.82454 18.9001 4.8602C18.9004 5.58158 18.9007 6.10814 18.7662 6.60808C18.6475 7.04912 18.4523 7.46588 18.1895 7.83938C17.8915 8.26277 17.4868 8.59968 16.9325 9.06126C16.9051 9.08407 16.8773 9.10719 16.8491 9.13064L13.4059 12L16.8492 14.8693C16.8773 14.8928 16.9051 14.9159 16.9325 14.9387C17.4868 15.4003 17.8915 15.7372 18.1895 16.1606C18.4523 16.5341 18.6475 16.9508 18.7662 17.3919C18.9007 17.8918 18.9004 18.4184 18.9001 19.1398C18.9001 19.1754 18.9001 19.2115 18.9001 19.2482V21.1H20.0001C20.4972 21.1 20.9001 21.5029 20.9001 22C20.9001 22.497 20.4972 22.9 20.0001 22.9H18.0001H6.0001H4.0001C3.50304 22.9 3.1001 22.497 3.1001 22C3.1001 21.5029 3.50304 21.1 4.0001 21.1H5.1001V19.2482C5.1001 19.2115 5.10008 19.1754 5.10007 19.1398C5.09975 18.4184 5.09951 17.8918 5.23402 17.3919C5.35267 16.9508 5.54788 16.5341 5.81073 16.1606C6.10869 15.7372 6.51335 15.4003 7.06774 14.9387C7.09514 14.9159 7.12291 14.8928 7.15105 14.8693L10.5943 12L7.15104 9.13064C7.12291 9.10719 7.09514 9.08407 7.06775 9.06126C6.51335 8.59969 6.10869 8.26277 5.81073 7.83938C5.54788 7.46588 5.35267 7.04912 5.23402 6.60808C5.09951 6.10814 5.09975 5.58158 5.10007 4.86019C5.10008 4.82454 5.1001 4.7884 5.1001 4.75178V2.89998H4.0001C3.50304 2.89998 3.1001 2.49703 3.1001 1.99998ZM6.9001 2.89998V4.75178C6.9001 5.62688 6.90733 5.8993 6.97221 6.14044C7.0361 6.37792 7.14121 6.60233 7.28274 6.80344C7.42646 7.00766 7.63111 7.18761 8.30338 7.74784L12.0001 10.8284L15.6968 7.74784C16.3691 7.18761 16.5737 7.00766 16.7175 6.80344C16.859 6.60233 16.9641 6.37792 17.028 6.14043C17.0929 5.8993 17.1001 5.62688 17.1001 4.75178V2.89998H6.9001ZM12.0001 13.1715L8.30338 16.2521C7.63111 16.8123 7.42646 16.9923 7.28274 17.1965C7.14121 17.3976 7.0361 17.622 6.97221 17.8595C6.90733 18.1007 6.9001 18.3731 6.9001 19.2482V21.1H17.1001V19.2482C17.1001 18.3731 17.0929 18.1007 17.028 17.8595C16.9641 17.622 16.859 17.3976 16.7175 17.1965C16.5737 16.9923 16.3691 16.8123 15.6968 16.2521L12.0001 13.1715Z" fill="#272727"/>
</svg>
