<svg width="24" height="24" viewBox="0 0 24 24" fill="none" xmlns="http://www.w3.org/2000/svg">
<path fill-rule="evenodd" clip-rule="evenodd" d="M13.5667 3.03367C10.3703 2.47555 7.04249 3.6692 4.94455 6.25079C4.78415 6.44817 4.71021 6.54117 4.6639 6.61333C4.65572 6.62607 4.65036 6.63528 4.64698 6.64144C4.64753 6.65001 4.64876 6.66098 4.65104 6.67335C4.65287 6.68329 4.65502 6.69214 4.65711 6.69949C4.66596 6.70695 4.67969 6.71782 4.70001 6.73241C4.79072 6.79752 4.92318 6.87517 5.17548 7.02084L8.21994 8.77855C9.54236 6.65998 11.0621 4.90979 12.5296 3.75504C12.8727 3.48502 13.2196 3.24234 13.5667 3.03367ZM17.4456 2.55801C12.7443 -0.153429 6.86463 1.03392 3.54765 5.1156C3.52919 5.13831 3.51023 5.16143 3.4909 5.185C3.25005 5.47864 2.95274 5.84114 2.86929 6.3469C2.80078 6.76211 2.89086 7.25052 3.10299 7.61397C3.25502 7.87444 3.45362 8.05346 3.6504 8.19471C3.82261 8.31832 4.03458 8.44065 4.24712 8.56331C4.25658 8.56877 4.26603 8.57423 4.27548 8.57968L8.08553 10.7794C8.08569 10.7795 8.08584 10.7796 8.086 10.7797C8.08615 10.7798 8.0863 10.7799 8.08646 10.78L10.7707 12.3297L5.70698 21.1003H2.0001C1.50304 21.1003 1.1001 21.5032 1.1001 22.0003C1.1001 22.4973 1.50304 22.9003 2.0001 22.9003H22.0001C22.4972 22.9003 22.9001 22.4973 22.9001 22.0003C22.9001 21.5032 22.4972 21.1003 22.0001 21.1003H7.78544L12.3295 13.2297L15.0142 14.7797L18.8247 16.9797L18.8531 16.9961C19.0656 17.1188 19.2775 17.2412 19.4706 17.3285C19.6914 17.4283 19.9457 17.5108 20.2473 17.5122C20.6681 17.5142 21.1361 17.348 21.4615 17.0811C21.8577 16.7559 22.023 16.3172 22.1569 15.9618C22.1676 15.9333 22.1782 15.9053 22.1886 15.878C24.0656 10.963 22.1522 5.27535 17.4501 2.56058C17.4486 2.55973 17.4471 2.55887 17.4456 2.55801ZM16.5501 4.11943C16.3552 4.00689 16.0355 3.9497 15.5159 4.10458C14.9938 4.2602 14.3554 4.60877 13.6427 5.16961C12.3829 6.16092 11.0079 7.72287 9.77977 9.67912L12.4501 11.2208L15.1204 12.7626C16.2005 10.7209 16.8657 8.74908 17.0943 7.16241C17.2237 6.26474 17.2063 5.53761 17.0801 5.00766C16.9544 4.48026 16.745 4.23197 16.5501 4.11943ZM16.6803 13.6631C17.8538 11.4586 18.6096 9.26736 18.8759 7.4191C18.9382 6.98691 18.9749 6.56515 18.9821 6.16026C21.0637 8.64937 21.6938 12.1281 20.5071 15.2358C20.4163 15.4734 20.3727 15.5839 20.3334 15.6601C20.3265 15.6736 20.3212 15.6828 20.3175 15.6888C20.3098 15.6927 20.2997 15.6971 20.2879 15.7013C20.2783 15.7047 20.2696 15.7072 20.2622 15.7091C20.2513 15.7052 20.235 15.6987 20.2122 15.6884C20.1105 15.6424 19.977 15.5665 19.7247 15.4208L16.6803 13.6631ZM20.2799 15.7147C20.28 15.7148 20.2793 15.7146 20.2779 15.7142L20.2799 15.7147ZM4.64336 6.68693C4.64339 6.68694 4.64391 6.68745 4.6448 6.68846C4.64376 6.68743 4.64332 6.68693 4.64336 6.68693Z" fill="#272727"/>
</svg>
