<svg width="24" height="24" viewBox="0 0 24 24" fill="none" xmlns="http://www.w3.org/2000/svg">
<path fill-rule="evenodd" clip-rule="evenodd" d="M11.9999 3.9001C10.0117 3.9001 8.39995 5.51187 8.39995 7.5001C8.39995 9.48832 10.0117 11.1001 11.9999 11.1001C13.9882 11.1001 15.5999 9.48832 15.5999 7.5001C15.5999 5.51187 13.9882 3.9001 11.9999 3.9001ZM6.59995 7.5001C6.59995 4.51776 9.01761 2.1001 11.9999 2.1001C14.9823 2.1001 17.3999 4.51776 17.3999 7.5001C17.3999 10.4824 14.9823 12.9001 11.9999 12.9001C9.01761 12.9001 6.59995 10.4824 6.59995 7.5001ZM11.9999 15.9001C9.12781 15.9001 6.56847 17.2855 4.93401 19.4486C4.7264 19.7234 4.62616 19.8593 4.56736 19.9642C4.55781 19.9813 4.55142 19.994 4.54725 20.0031C4.55088 20.0135 4.55602 20.0261 4.56285 20.0398C4.5682 20.0506 4.57362 20.0601 4.57866 20.0681C4.5949 20.0716 4.61891 20.0758 4.65284 20.0798C4.80922 20.0986 5.02851 20.1001 5.42718 20.1001H18.5727C18.9714 20.1001 19.1907 20.0986 19.3471 20.0798C19.381 20.0758 19.405 20.0716 19.4212 20.0681C19.4263 20.0601 19.4317 20.0506 19.437 20.0398C19.4439 20.0261 19.449 20.0135 19.4527 20.0031C19.4485 19.994 19.4421 19.9813 19.4325 19.9642C19.3737 19.8593 19.2735 19.7234 19.0659 19.4486C17.4314 17.2855 14.8721 15.9001 11.9999 15.9001ZM19.4499 20.0604C19.4499 20.0604 19.449 20.0608 19.4468 20.0616C19.4487 20.0607 19.4498 20.0604 19.4499 20.0604ZM4.55003 20.0604C4.5501 20.0604 4.55118 20.0607 4.55308 20.0616C4.55092 20.0608 4.54997 20.0604 4.55003 20.0604ZM3.49788 18.3635C5.45303 15.776 8.53193 14.1001 11.9999 14.1001C15.468 14.1001 18.5469 15.776 20.502 18.3635C20.5105 18.3746 20.5189 18.3858 20.5274 18.397C20.6985 18.6233 20.8764 18.8587 21.0029 19.0845C21.1541 19.3544 21.2637 19.6619 21.2569 20.0348C21.2514 20.3341 21.1605 20.6168 21.0485 20.8419C20.9364 21.0671 20.7656 21.31 20.5302 21.4948C20.2166 21.7409 19.8738 21.8296 19.5614 21.867C19.2847 21.9002 18.955 21.9002 18.6153 21.9001L18.5727 21.9001H5.42718L5.38456 21.9001C5.04486 21.9002 4.7152 21.9002 4.4385 21.867C4.12612 21.8296 3.78329 21.7409 3.46971 21.4948C3.23426 21.31 3.06351 21.0671 2.95145 20.8419C2.83938 20.6168 2.74845 20.3341 2.74298 20.0348C2.73616 19.6619 2.84578 19.3544 2.99696 19.0845C3.12346 18.8587 3.30146 18.6233 3.47255 18.397C3.48101 18.3858 3.48946 18.3746 3.49788 18.3635Z" fill="#272727"/>
</svg>
