<svg width="64" height="64" viewBox="0 0 64 64" fill="none" xmlns="http://www.w3.org/2000/svg">
<path d="M12.01 28.155V45.925C12.01 47.665 13.42 49.065 15.15 49.065H42.56C44.3 49.065 45.7 47.655 45.7 45.925V28.155L28.9 16.465L12 28.155H12.01Z" fill="#E1E1E1"/>
<path d="M27.6098 12.415L12.9898 22.525C12.3698 22.955 12.0098 23.655 12.0098 24.395V29.935L28.9098 18.245L45.7098 29.935V25.205C45.7098 23.645 45.3498 22.945 44.7298 22.515L30.2098 12.405C29.4298 11.865 28.3898 11.865 27.6098 12.405V12.415Z" fill="#96AA9E"/>
<path d="M39.0698 52.505C45.9844 52.505 51.5898 46.8996 51.5898 39.985C51.5898 33.0704 45.9844 27.465 39.0698 27.465C32.1552 27.465 26.5498 33.0704 26.5498 39.985C26.5498 46.8996 32.1552 52.505 39.0698 52.505Z" fill="#00AF78"/>
<path d="M43.4796 38.985H40.0396V34.185C40.0396 33.655 39.6096 33.225 39.0796 33.225C38.5496 33.225 38.1196 33.655 38.1196 34.185V40.295C38.1196 40.625 38.3896 40.895 38.7196 40.895H43.4796C44.0096 40.895 44.4396 40.465 44.4396 39.935C44.4396 39.405 44.0096 38.975 43.4796 38.975V38.985Z" fill="#D2F9EC"/>
</svg>
